# Blender v2.78 (sub 0) OBJ File: 'dampening_foam.blend'
# www.blender.org
mtllib dampening_foam.mtl
o Cube.003_Cube.004
v 0.000000 0.921012 4.750000
v 0.000000 0.921012 4.750000
v -0.000000 0.171012 5.500000
v -0.000000 0.171012 5.500000
v 0.000000 0.921012 6.250000
v 0.000000 0.921012 6.250000
v 0.000000 1.000000 7.828987
v 0.000000 1.000000 7.828987
v -0.000000 0.171012 7.000000
v -0.000000 0.171012 7.000000
v -0.000000 0.171012 4.000000
v -0.000000 0.171012 4.000000
v 0.000000 0.921012 3.250000
v 0.000000 0.921012 3.250000
v -0.000000 0.171012 2.500000
v -0.000000 0.171012 2.500000
v 0.000000 0.921012 1.750000
v 0.000000 0.921012 1.750000
v -0.000000 0.171012 0.999999
v -0.000000 0.171012 0.999999
v 0.000000 1.000000 0.171011
v 0.000000 1.000000 0.171011
v -0.000000 1.000000 0.000000
v -0.000000 1.000000 0.000000
v 0.000000 1.000000 8.000000
v 0.000000 1.000000 8.000000
v 0.000000 0.000000 8.000000
v 0.000000 0.000000 8.000000
v -0.000000 0.000000 0.000000
v -0.000000 0.000000 0.000000
v -8.000000 0.000000 0.000000
v -8.000000 0.000000 0.000000
v -8.000000 1.000000 0.000000
v -8.000000 1.000000 0.000000
v -8.000000 1.000000 0.171011
v -8.000000 1.000000 0.171011
v -7.999999 0.171012 0.999999
v -7.999999 0.171012 0.999999
v -8.000000 0.921012 1.749999
v -8.000000 0.921012 1.749999
v -8.000000 0.171012 2.499999
v -8.000000 0.171012 2.499999
v -8.000000 0.921012 3.249999
v -8.000000 0.921012 3.249999
v -8.000000 0.171012 3.999999
v -8.000000 0.171012 3.999999
v -8.000000 0.921012 4.749999
v -8.000000 0.921012 4.749999
v -8.000000 0.171012 5.500000
v -8.000000 0.171012 5.500000
v -8.000000 0.921012 6.250000
v -8.000000 0.921012 6.250000
v -7.999999 0.171012 7.000000
v -7.999999 0.171012 7.000000
v -8.000000 1.000000 7.828987
v -8.000000 1.000000 7.828987
v -8.000000 1.000000 8.000000
v -8.000000 1.000000 8.000000
v -8.000000 0.000000 8.000000
v -8.000000 0.000000 8.000000
v -3.250001 0.921012 -8.000000
v -3.250001 0.921012 -8.000000
v -2.500001 0.171012 -8.000000
v -2.500001 0.171012 -8.000000
v -1.750001 0.921012 -8.000000
v -1.750001 0.921012 -8.000000
v -0.171013 1.000000 -8.000000
v -0.171013 1.000000 -8.000000
v -1.000001 0.171012 -8.000000
v -1.000001 0.171012 -8.000000
v -4.000001 0.171012 -8.000000
v -4.000001 0.171012 -8.000000
v -4.750000 0.921012 -7.999999
v -4.750000 0.921012 -7.999999
v -5.500000 0.171012 -7.999999
v -5.500000 0.171012 -7.999999
v -6.250000 0.921012 -8.000000
v -6.250000 0.921012 -8.000000
v -7.000001 0.171012 -8.000000
v -7.000001 0.171012 -8.000000
v -7.828989 1.000000 -8.000000
v -7.828989 1.000000 -8.000000
v -8.000000 1.000000 -8.000000
v -8.000000 1.000000 -8.000000
v -0.000001 1.000000 -8.000000
v -0.000001 1.000000 -8.000000
v -0.000001 0.000000 -8.000000
v -0.000001 0.000000 -8.000000
v -8.000000 0.000000 -8.000000
v -8.000000 0.000000 -8.000000
v -8.000000 0.000000 0.000000
v -8.000000 0.000000 0.000000
v -8.000000 1.000000 0.000000
v -8.000000 1.000000 0.000000
v -7.828989 1.000000 0.000000
v -7.828989 1.000000 0.000000
v -7.000001 0.171012 0.000000
v -7.000001 0.171012 0.000000
v -6.250001 0.921012 0.000000
v -6.250001 0.921012 0.000000
v -5.500001 0.171012 0.000000
v -5.500001 0.171012 0.000000
v -4.750001 0.921012 0.000000
v -4.750001 0.921012 0.000000
v -4.000001 0.171012 0.000000
v -4.000001 0.171012 0.000000
v -3.250000 0.921012 0.000000
v -3.250000 0.921012 0.000000
v -2.500000 0.171012 -0.000000
v -2.500000 0.171012 -0.000000
v -1.750000 0.921012 0.000000
v -1.750000 0.921012 0.000000
v -1.000000 0.171012 -0.000000
v -1.000000 0.171012 -0.000000
v -0.171013 1.000000 0.000000
v -0.171013 1.000000 0.000000
v -0.000000 1.000000 0.000000
v -0.000000 1.000000 0.000000
v -0.000000 0.000000 0.000000
v -0.000000 0.000000 0.000000
v 3.250001 0.921012 8.000000
v 3.250001 0.921012 8.000000
v 2.500000 0.171012 8.000000
v 2.500000 0.171012 8.000000
v 1.750000 0.921012 7.999999
v 1.750000 0.921012 7.999999
v 0.171013 1.000000 8.000000
v 0.171013 1.000000 8.000000
v 1.000000 0.171012 7.999999
v 1.000000 0.171012 7.999999
v 4.000001 0.171012 7.999999
v 4.000001 0.171012 7.999999
v 4.750000 0.921012 8.000000
v 4.750000 0.921012 8.000000
v 5.500000 0.171012 8.000000
v 5.500000 0.171012 8.000000
v 6.250001 0.921012 8.000000
v 6.250001 0.921012 8.000000
v 7.000001 0.171012 7.999999
v 7.000001 0.171012 7.999999
v 7.828989 1.000000 7.999999
v 7.828989 1.000000 7.999999
v 8.000000 1.000000 7.999999
v 8.000000 1.000000 7.999999
v -0.000000 1.000000 8.000000
v -0.000000 1.000000 8.000000
v -0.000000 0.000000 8.000000
v -0.000000 0.000000 8.000000
v 8.000000 0.000000 7.999999
v 8.000000 0.000000 7.999999
v 8.000000 0.000000 -0.000000
v 8.000000 0.000000 -0.000000
v 8.000000 1.000000 -0.000000
v 8.000000 1.000000 -0.000000
v 7.828989 1.000000 -0.000000
v 7.828989 1.000000 -0.000000
v 7.000001 0.171012 0.000000
v 7.000001 0.171012 0.000000
v 6.250000 0.921012 -0.000000
v 6.250000 0.921012 -0.000000
v 5.500001 0.171012 -0.000000
v 5.500001 0.171012 -0.000000
v 4.750001 0.921012 -0.000000
v 4.750001 0.921012 -0.000000
v 4.000001 0.171012 -0.000000
v 4.000001 0.171012 -0.000000
v 3.250001 0.921012 -0.000000
v 3.250001 0.921012 -0.000000
v 2.500000 0.171012 0.000000
v 2.500000 0.171012 0.000000
v 1.750000 0.921012 -0.000000
v 1.750000 0.921012 -0.000000
v 1.000000 0.171012 0.000000
v 1.000000 0.171012 0.000000
v 0.171013 1.000000 -0.000000
v 0.171013 1.000000 -0.000000
v -0.000000 1.000000 0.000000
v -0.000000 1.000000 0.000000
v -0.000000 0.000000 0.000000
v -0.000000 0.000000 0.000000
v -0.000001 0.921012 -4.749998
v -0.000001 0.921012 -4.749998
v -0.000001 0.171012 -5.499999
v -0.000001 0.171012 -5.499999
v -0.000001 0.921012 -6.249999
v -0.000001 0.921012 -6.249999
v -0.000002 1.000000 -7.828986
v -0.000002 1.000000 -7.828986
v -0.000001 0.171012 -6.999999
v -0.000001 0.171012 -6.999999
v -0.000000 0.171012 -3.999998
v -0.000000 0.171012 -3.999998
v -0.000000 0.921012 -3.249998
v -0.000000 0.921012 -3.249998
v 0.000000 0.171012 -2.499998
v 0.000000 0.171012 -2.499998
v 0.000000 0.921012 -1.749998
v 0.000000 0.921012 -1.749998
v 0.000001 0.171012 -0.999998
v 0.000001 0.171012 -0.999998
v 0.000001 1.000000 -0.171010
v 0.000001 1.000000 -0.171010
v 0.000001 1.000000 0.000001
v 0.000001 1.000000 0.000001
v -0.000002 1.000000 -7.999999
v -0.000002 1.000000 -7.999999
v -0.000002 0.000000 -7.999999
v -0.000002 0.000000 -7.999999
v 0.000001 0.000000 0.000001
v 0.000001 0.000000 0.000001
v 8.000000 0.000000 -0.000001
v 8.000000 0.000000 -0.000001
v 8.000000 1.000000 -0.000001
v 8.000000 1.000000 -0.000001
v 8.000000 1.000000 -0.171012
v 8.000000 1.000000 -0.171012
v 8.000000 0.171012 -1.000000
v 8.000000 0.171012 -1.000000
v 8.000000 0.921012 -1.750001
v 8.000000 0.921012 -1.750001
v 8.000000 0.171012 -2.500001
v 8.000000 0.171012 -2.500001
v 8.000000 0.921012 -3.250001
v 8.000000 0.921012 -3.250001
v 7.999999 0.171012 -4.000000
v 7.999999 0.171012 -4.000000
v 7.999999 0.921012 -4.750000
v 7.999999 0.921012 -4.750000
v 7.999999 0.171012 -5.500001
v 7.999999 0.171012 -5.500001
v 7.999999 0.921012 -6.250001
v 7.999999 0.921012 -6.250001
v 7.999998 0.171012 -7.000001
v 7.999998 0.171012 -7.000001
v 7.999998 1.000000 -7.828989
v 7.999998 1.000000 -7.828989
v 7.999998 1.000000 -8.000002
v 7.999998 1.000000 -8.000002
v 7.999998 0.000000 -8.000002
v 7.999998 0.000000 -8.000002
v -0.000000 0.171012 7.000000
v 0.000000 0.921012 6.250000
v -0.000000 0.171012 5.500000
v 0.000000 0.921012 4.750000
v -0.000000 0.171012 4.000000
v 0.000000 0.921012 3.250000
v -0.000000 0.171012 2.500000
v 0.000000 0.921012 1.750000
v -0.000000 0.171012 0.999999
v 0.000000 1.000000 0.171011
v -0.000000 1.000000 0.000000
v 0.000000 1.000000 7.828987
v 0.000000 1.000000 8.000000
v 0.000000 0.000000 8.000000
v -0.000000 0.000000 0.000000
v -8.000000 0.000000 0.000000
v -8.000000 1.000000 0.000000
v -8.000000 1.000000 0.171011
v -7.999999 0.171012 0.999999
v -8.000000 0.921012 1.749999
v -8.000000 0.171012 2.499999
v -8.000000 0.921012 3.249999
v -8.000000 0.171012 3.999999
v -8.000000 0.921012 4.749999
v -8.000000 0.171012 5.500000
v -8.000000 0.921012 6.250000
v -7.999999 0.171012 7.000000
v -8.000000 1.000000 7.828987
v -8.000000 1.000000 8.000000
v -8.000000 0.000000 8.000000
v -1.000001 0.171012 -8.000000
v -1.750001 0.921012 -8.000000
v -2.500001 0.171012 -8.000000
v -3.250001 0.921012 -8.000000
v -4.000001 0.171012 -8.000000
v -4.750000 0.921012 -7.999999
v -5.500000 0.171012 -7.999999
v -6.250000 0.921012 -8.000000
v -7.000001 0.171012 -8.000000
v -7.828989 1.000000 -8.000000
v -8.000000 1.000000 -8.000000
v -0.171013 1.000000 -8.000000
v -0.000001 1.000000 -8.000000
v -0.000001 0.000000 -8.000000
v -8.000000 0.000000 -8.000000
v -8.000000 0.000000 0.000000
v -8.000000 1.000000 0.000000
v -7.828989 1.000000 0.000000
v -7.000001 0.171012 0.000000
v -6.250001 0.921012 0.000000
v -5.500001 0.171012 0.000000
v -4.750001 0.921012 0.000000
v -4.000001 0.171012 0.000000
v -3.250000 0.921012 0.000000
v -2.500000 0.171012 -0.000000
v -1.750000 0.921012 0.000000
v -1.000000 0.171012 -0.000000
v -0.171013 1.000000 0.000000
v -0.000000 1.000000 0.000000
v -0.000000 0.000000 0.000000
v 1.000000 0.171012 7.999999
v 1.750000 0.921012 7.999999
v 2.500000 0.171012 8.000000
v 3.250001 0.921012 8.000000
v 4.000001 0.171012 7.999999
v 4.750000 0.921012 8.000000
v 5.500000 0.171012 8.000000
v 6.250001 0.921012 8.000000
v 7.000001 0.171012 7.999999
v 7.828989 1.000000 7.999999
v 8.000000 1.000000 7.999999
v 0.171013 1.000000 8.000000
v -0.000000 1.000000 8.000000
v -0.000000 0.000000 8.000000
v 8.000000 0.000000 7.999999
v 8.000000 0.000000 -0.000000
v 8.000000 1.000000 -0.000000
v 7.828989 1.000000 -0.000000
v 7.000001 0.171012 0.000000
v 6.250000 0.921012 -0.000000
v 5.500001 0.171012 -0.000000
v 4.750001 0.921012 -0.000000
v 4.000001 0.171012 -0.000000
v 3.250001 0.921012 -0.000000
v 2.500000 0.171012 0.000000
v 1.750000 0.921012 -0.000000
v 1.000000 0.171012 0.000000
v 0.171013 1.000000 -0.000000
v -0.000000 1.000000 0.000000
v -0.000000 0.000000 0.000000
v -0.000001 0.171012 -6.999999
v -0.000001 0.921012 -6.249999
v -0.000001 0.171012 -5.499999
v -0.000001 0.921012 -4.749998
v -0.000000 0.171012 -3.999998
v -0.000000 0.921012 -3.249998
v 0.000000 0.171012 -2.499998
v 0.000000 0.921012 -1.749998
v 0.000001 0.171012 -0.999998
v 0.000001 1.000000 -0.171010
v 0.000001 1.000000 0.000001
v -0.000002 1.000000 -7.828986
v -0.000002 1.000000 -7.999999
v -0.000002 0.000000 -7.999999
v 0.000001 0.000000 0.000001
v 8.000000 0.000000 -0.000001
v 8.000000 1.000000 -0.000001
v 8.000000 1.000000 -0.171012
v 8.000000 0.171012 -1.000000
v 8.000000 0.921012 -1.750001
v 8.000000 0.171012 -2.500001
v 8.000000 0.921012 -3.250001
v 7.999999 0.171012 -4.000000
v 7.999999 0.921012 -4.750000
v 7.999999 0.171012 -5.500001
v 7.999999 0.921012 -6.250001
v 7.999998 0.171012 -7.000001
v 7.999998 1.000000 -7.828989
v 7.999998 1.000000 -8.000002
v 7.999998 0.000000 -8.000002
vt 0.2506 0.9126
vt 0.2506 0.9072
vt 0.4994 0.9072
vt 0.4994 0.9126
vt 0.2506 0.7872
vt 0.2506 0.7543
vt 0.4994 0.7543
vt 0.4994 0.7872
vt 0.4994 0.6845
vt 0.2506 0.6845
vt 0.2506 0.6515
vt 0.4994 0.6515
vt 0.7494 0.6138
vt 0.7494 0.6468
vt 0.5006 0.6468
vt 0.5006 0.6138
vt 0.2506 0.5748
vt 0.2506 0.5384
vt 0.4994 0.5384
vt 0.4994 0.5748
vt 0.0006 0.8215
vt 0.0006 0.7885
vt 0.2494 0.7885
vt 0.2494 0.8215
vt 0.2494 0.6138
vt 0.2494 0.6502
vt 0.0006 0.6502
vt 0.0006 0.6138
vt 0.7494 0.2404
vt 0.7494 0.2733
vt 0.5006 0.2733
vt 0.5006 0.2404
vt 0.2506 0.6858
vt 0.4994 0.6858
vt 0.4994 0.7187
vt 0.2506 0.7187
vt 0.4994 0.7885
vt 0.4994 0.8215
vt 0.2506 0.8215
vt 0.2506 0.7885
vt 0.5006 0.8858
vt 0.6250 0.8911
vt 0.5784 0.8911
vt 0.6716 0.8911
vt 0.6483 0.9144
vt 0.7494 0.8858
vt 0.7183 0.8911
vt 0.5317 0.8911
vt 0.6017 0.9144
vt 0.7440 0.9169
vt 0.6950 0.9144
vt 0.7494 0.9169
vt 0.5060 0.9169
vt 0.5550 0.9144
vt 0.5006 0.9169
vt 0.5006 0.5371
vt 0.5006 0.5041
vt 0.7494 0.5041
vt 0.7494 0.5371
vt 0.0006 0.7872
vt 0.0006 0.7543
vt 0.2494 0.7543
vt 0.2494 0.7872
vt 0.4994 0.5006
vt 0.4994 0.5371
vt 0.2506 0.5371
vt 0.2506 0.5006
vt 0.5006 0.2049
vt 0.5006 0.1719
vt 0.7494 0.1719
vt 0.7494 0.2049
vt 0.7494 0.7543
vt 0.7494 0.7872
vt 0.5006 0.7872
vt 0.5006 0.7543
vt 0.7494 0.8534
vt 0.6716 0.8587
vt 0.6250 0.8587
vt 0.6017 0.8820
vt 0.5784 0.8587
vt 0.5317 0.8587
vt 0.5006 0.8534
vt 0.7183 0.8587
vt 0.6483 0.8820
vt 0.5060 0.8845
vt 0.5550 0.8820
vt 0.5006 0.8845
vt 0.7440 0.8845
vt 0.6950 0.8820
vt 0.7494 0.8845
vt 0.2494 0.5371
vt 0.0006 0.5371
vt 0.0006 0.5006
vt 0.2494 0.5006
vt 0.7494 0.4116
vt 0.7494 0.4446
vt 0.5006 0.4446
vt 0.5006 0.4116
vt 0.7494 0.7200
vt 0.7494 0.7530
vt 0.5006 0.7530
vt 0.5006 0.7200
vt 0.5006 0.4920
vt 0.5006 0.4867
vt 0.7494 0.4867
vt 0.7494 0.4920
vt 0.2506 0.6502
vt 0.2506 0.6138
vt 0.4994 0.6138
vt 0.4994 0.6502
vt 0.7494 0.0679
vt 0.5006 0.0679
vt 0.5006 0.0349
vt 0.7494 0.0349
vt 0.2506 0.9060
vt 0.2506 0.9007
vt 0.4994 0.9007
vt 0.4994 0.9060
vt 0.7494 0.3774
vt 0.7494 0.4103
vt 0.5006 0.4103
vt 0.5006 0.3774
vt 0.2506 0.7530
vt 0.2506 0.7200
vt 0.4994 0.7200
vt 0.4994 0.7530
vt 0.7494 0.8210
vt 0.6716 0.8263
vt 0.6250 0.8263
vt 0.6017 0.8496
vt 0.5784 0.8263
vt 0.5317 0.8263
vt 0.5006 0.8210
vt 0.7183 0.8264
vt 0.6483 0.8496
vt 0.5060 0.8521
vt 0.5550 0.8496
vt 0.5006 0.8520
vt 0.7440 0.8521
vt 0.6950 0.8497
vt 0.7494 0.8521
vt 0.5006 0.1364
vt 0.5006 0.1034
vt 0.7494 0.1034
vt 0.7494 0.1364
vt 0.2494 0.6515
vt 0.2494 0.6845
vt 0.0006 0.6845
vt 0.0006 0.6515
vt 0.0006 0.2494
vt 0.0006 0.0006
vt 0.2494 0.0006
vt 0.2494 0.2494
vt 0.0006 0.2506
vt 0.2494 0.2506
vt 0.2494 0.4994
vt 0.0006 0.4994
vt 0.2506 0.0006
vt 0.4994 0.0006
vt 0.4994 0.2494
vt 0.2506 0.2494
vt 0.2506 0.8228
vt 0.3750 0.8281
vt 0.3284 0.8281
vt 0.4216 0.8281
vt 0.3983 0.8514
vt 0.4994 0.8228
vt 0.4683 0.8281
vt 0.2817 0.8281
vt 0.3517 0.8514
vt 0.4940 0.8538
vt 0.4450 0.8514
vt 0.4994 0.8538
vt 0.2560 0.8538
vt 0.3050 0.8514
vt 0.2506 0.8538
vt 0.2494 0.7200
vt 0.2494 0.7530
vt 0.0006 0.7530
vt 0.0006 0.7200
vt 0.7494 0.1376
vt 0.7494 0.1706
vt 0.5006 0.1706
vt 0.5006 0.1376
vt 0.0006 0.5748
vt 0.0006 0.5384
vt 0.2494 0.5384
vt 0.2494 0.5748
vt 0.4994 0.5761
vt 0.4994 0.6125
vt 0.2506 0.6125
vt 0.2506 0.5761
vt 0.7494 0.0006
vt 0.7494 0.0336
vt 0.5006 0.0336
vt 0.5006 0.0006
vt 0.5006 0.6091
vt 0.5006 0.5761
vt 0.7494 0.5761
vt 0.7494 0.6091
vt 0.7494 0.3761
vt 0.5006 0.3761
vt 0.5006 0.3431
vt 0.7494 0.3431
vt 0.0006 0.7187
vt 0.0006 0.6858
vt 0.2494 0.6858
vt 0.2494 0.7187
vt 0.7494 0.4854
vt 0.5006 0.4854
vt 0.5006 0.4801
vt 0.7494 0.4801
vt 0.5006 0.4788
vt 0.5006 0.4459
vt 0.7494 0.4459
vt 0.7494 0.4788
vt 0.0006 0.8539
vt 0.0784 0.8485
vt 0.1250 0.8485
vt 0.1483 0.8252
vt 0.1716 0.8485
vt 0.2183 0.8485
vt 0.2494 0.8539
vt 0.0317 0.8485
vt 0.1017 0.8252
vt 0.2440 0.8228
vt 0.1950 0.8252
vt 0.2494 0.8228
vt 0.0060 0.8228
vt 0.0550 0.8252
vt 0.0006 0.8228
vt 0.4994 0.9181
vt 0.4994 0.9492
vt 0.2506 0.9492
vt 0.2506 0.9181
vt 0.2506 0.8994
vt 0.2506 0.8941
vt 0.4994 0.8941
vt 0.4994 0.8994
vt 0.2506 0.8875
vt 0.4994 0.8875
vt 0.4994 0.8928
vt 0.2506 0.8928
vt 0.7494 0.9505
vt 0.7494 0.9816
vt 0.5006 0.9816
vt 0.5006 0.9505
vt 0.7494 0.4986
vt 0.5006 0.4986
vt 0.5006 0.4933
vt 0.7494 0.4933
vt 0.4994 0.8862
vt 0.3750 0.8809
vt 0.4216 0.8809
vt 0.3284 0.8809
vt 0.3517 0.8576
vt 0.2506 0.8862
vt 0.2817 0.8809
vt 0.4683 0.8809
vt 0.3983 0.8576
vt 0.2560 0.8551
vt 0.3050 0.8576
vt 0.2506 0.8551
vt 0.4940 0.8551
vt 0.4450 0.8576
vt 0.4994 0.8551
vt 0.7494 0.0691
vt 0.7494 0.1021
vt 0.5006 0.1021
vt 0.5006 0.0691
vt 0.0006 0.9509
vt 0.0006 0.9198
vt 0.2494 0.9198
vt 0.2494 0.9509
vt 0.7506 0.0317
vt 0.7506 0.0006
vt 0.9994 0.0006
vt 0.9994 0.0317
vt 0.4994 0.9505
vt 0.4994 0.9816
vt 0.2506 0.9816
vt 0.2506 0.9505
vt 0.5006 0.3418
vt 0.5006 0.3089
vt 0.7494 0.3089
vt 0.7494 0.3418
vt 0.2494 0.8875
vt 0.2494 0.9186
vt 0.0006 0.9186
vt 0.0006 0.8875
vt 0.5006 0.5713
vt 0.5006 0.5384
vt 0.7494 0.5384
vt 0.7494 0.5713
vt 0.7494 0.2746
vt 0.7494 0.3076
vt 0.5006 0.3076
vt 0.5006 0.2746
vt 0.5006 0.2391
vt 0.5006 0.2061
vt 0.7494 0.2061
vt 0.7494 0.2391
vt 0.7494 0.6515
vt 0.7494 0.6845
vt 0.5006 0.6845
vt 0.5006 0.6515
vt 0.7494 0.8197
vt 0.6250 0.8143
vt 0.6716 0.8143
vt 0.5784 0.8143
vt 0.6017 0.7910
vt 0.5006 0.8196
vt 0.5317 0.8143
vt 0.7183 0.8144
vt 0.6483 0.7910
vt 0.5060 0.7885
vt 0.5551 0.7910
vt 0.5006 0.7885
vt 0.7441 0.7886
vt 0.6950 0.7910
vt 0.7494 0.7886
vt 0.0006 0.6125
vt 0.0006 0.5761
vt 0.2494 0.5761
vt 0.2494 0.6125
vt 0.5006 0.7187
vt 0.5006 0.6858
vt 0.7494 0.6858
vt 0.7494 0.7187
vt 0.7494 0.9181
vt 0.7494 0.9492
vt 0.5006 0.9492
vt 0.5006 0.9181
vt 0.4994 0.9882
vt 0.2506 0.9882
vt 0.2506 0.9829
vt 0.4994 0.9829
vt 0.2494 0.9522
vt 0.2494 0.9833
vt 0.0006 0.9833
vt 0.0006 0.9522
vt 0.0006 0.8862
vt 0.0784 0.8809
vt 0.1250 0.8809
vt 0.1483 0.8576
vt 0.1716 0.8809
vt 0.2183 0.8809
vt 0.2494 0.8862
vt 0.0317 0.8809
vt 0.1017 0.8576
vt 0.2440 0.8551
vt 0.1950 0.8576
vt 0.2494 0.8551
vt 0.0060 0.8551
vt 0.0550 0.8576
vt 0.0006 0.8551
vt 0.2506 0.4994
vt 0.2506 0.2506
vt 0.4994 0.2506
vt 0.4994 0.4994
vn 0.0000 1.0000 0.0000
vn -0.7071 0.7071 0.0000
vn 0.0000 0.7071 0.7071
vn 0.0000 0.7071 -0.7071
vn 0.7071 0.7071 0.0000
vn -1.0000 0.0000 0.0000
vn 0.0000 0.0000 -1.0000
vn 0.0000 -1.0000 0.0000
vn 0.0000 0.0000 1.0000
vn 1.0000 0.0000 0.0000
usemtl damp_foam
s 1
f 235/1/1 359/2/1 205/3/1 187/4/1
f 272/5/2 63/6/2 109/7/2 296/8/2
f 263/9/3 245/10/3 13/11/3 43/12/3
f 39/13/3 261/14/3 247/15/3 17/16/3
f 348/17/4 349/18/4 339/19/4 340/20/4
f 171/21/2 173/22/2 129/23/2 125/24/2
f 288/25/5 289/26/5 279/27/5 280/28/5
f 51/29/3 53/30/3 9/31/3 5/32/3
f 19/33/4 37/34/4 260/35/4 248/36/4
f 111/37/5 113/38/5 69/39/5 65/40/5
f 255/41/6 12/42/6 16/43/6
f 12/42/6 4/44/6 2/45/6
f 4/44/6 254/46/6 10/47/6
f 255/41/6 16/43/6 20/48/6
f 16/43/6 12/42/6 14/49/6
f 254/46/6 12/42/6 255/41/6
f 10/47/6 254/46/6 8/50/6
f 4/44/6 10/47/6 6/51/6
f 8/50/6 254/46/6 253/52/6
f 255/41/6 20/48/6 21/53/6
f 20/48/6 16/43/6 18/54/6
f 255/41/6 21/53/6 251/55/6
f 221/56/3 352/57/3 336/58/3 195/59/3
f 167/60/2 325/61/2 303/62/2 121/63/2
f 258/64/3 259/65/3 249/66/3 250/67/3
f 217/68/3 350/69/3 338/70/3 199/71/3
f 304/72/5 131/73/5 165/74/5 324/75/5
f 60/76/6 50/77/6 46/78/6
f 46/78/6 44/79/6 42/80/6
f 42/80/6 38/81/6 32/82/6
f 60/76/6 54/83/6 50/77/6
f 50/77/6 48/84/6 46/78/6
f 32/82/6 60/76/6 46/78/6
f 38/81/6 36/85/6 32/82/6
f 42/80/6 40/86/6 38/81/6
f 36/85/6 34/87/6 32/82/6
f 60/76/6 56/88/6 54/83/6
f 54/83/6 52/89/6 50/77/6
f 60/76/6 58/90/6 56/88/6
f 298/91/2 282/92/2 271/93/2 297/94/2
f 302/95/5 123/96/5 169/97/5 326/98/5
f 308/99/5 139/100/5 157/101/5 320/102/5
f 25/103/1 7/104/1 55/105/1 269/106/1
f 318/107/2 319/108/2 309/109/2 310/110/2
f 133/111/2 163/112/2 323/113/2 305/114/2
f 85/115/1 67/116/1 115/117/1 299/118/1
f 306/119/5 135/120/5 161/121/5 322/122/5
f 246/123/4 15/124/4 41/125/4 262/126/4
f 285/127/7 76/128/7 72/129/7
f 72/129/7 62/130/7 64/131/7
f 64/131/7 70/132/7 284/133/7
f 285/127/7 80/134/7 76/128/7
f 76/128/7 74/135/7 72/129/7
f 284/133/7 285/127/7 72/129/7
f 70/132/7 68/136/7 284/133/7
f 64/131/7 66/137/7 70/132/7
f 68/136/7 283/138/7 284/133/7
f 285/127/7 81/139/7 80/134/7
f 80/134/7 78/140/7 76/128/7
f 285/127/7 281/141/7 81/139/7
f 276/142/2 75/143/2 101/144/2 292/145/2
f 105/146/2 294/147/2 274/148/2 71/149/2
f 179/150/8 151/151/8 150/152/8 148/153/8
f 88/154/8 119/155/8 91/156/8 90/157/8
f 30/158/8 28/159/8 59/160/8 31/161/8
f 120/162/7 106/163/7 110/164/7
f 106/163/7 102/165/7 104/166/7
f 102/165/7 92/167/7 98/168/7
f 120/162/7 110/164/7 114/169/7
f 110/164/7 106/163/7 108/170/7
f 92/167/7 106/163/7 120/162/7
f 98/168/7 92/167/7 96/171/7
f 102/165/7 98/168/7 100/172/7
f 96/171/7 92/167/7 94/173/7
f 120/162/7 114/169/7 116/174/7
f 114/169/7 110/164/7 112/175/7
f 120/162/7 116/174/7 118/176/7
f 97/177/2 290/178/2 278/179/2 79/180/2
f 47/181/3 265/182/3 243/183/3 1/184/3
f 252/185/4 241/186/4 267/187/4 268/188/4
f 312/189/5 301/190/5 327/191/5 328/192/5
f 103/193/5 293/194/5 275/195/5 73/196/5
f 242/197/4 3/198/4 49/199/4 266/200/4
f 291/201/5 277/202/5 77/203/5 99/204/5
f 159/205/2 321/206/2 307/207/2 137/208/2
f 95/209/1 82/210/1 84/211/1 93/212/1
f 244/213/4 11/214/4 45/215/4 264/216/4
f 315/217/9 136/218/9 132/219/9
f 132/219/9 122/220/9 124/221/9
f 124/221/9 130/222/9 314/223/9
f 315/217/9 140/224/9 136/218/9
f 136/218/9 134/225/9 132/219/9
f 314/223/9 315/217/9 132/219/9
f 130/222/9 128/226/9 314/223/9
f 124/221/9 126/227/9 130/222/9
f 128/226/9 313/228/9 314/223/9
f 315/217/9 141/229/9 140/224/9
f 140/224/9 138/230/9 136/218/9
f 315/217/9 311/231/9 141/229/9
f 207/232/7 206/233/7 237/234/7 360/235/7
f 175/236/1 329/237/1 145/238/1 127/239/1
f 24/240/1 33/241/1 35/242/1 22/243/1
f 117/244/10 300/245/10 87/246/10 86/247/10
f 144/248/1 153/249/1 155/250/1 142/251/1
f 180/252/9 166/253/9 170/254/9
f 166/253/9 162/255/9 164/256/9
f 162/255/9 152/257/9 158/258/9
f 180/252/9 170/254/9 174/259/9
f 170/254/9 166/253/9 168/260/9
f 152/257/9 166/253/9 180/252/9
f 158/258/9 152/257/9 156/261/9
f 162/255/9 158/258/9 160/262/9
f 156/261/9 152/257/9 154/263/9
f 180/252/9 174/259/9 176/264/9
f 174/259/9 170/254/9 172/265/9
f 180/252/9 176/264/9 178/266/9
f 107/267/5 295/268/5 273/269/5 61/270/5
f 83/271/6 89/272/6 286/273/6 287/274/6
f 23/275/7 29/276/7 256/277/7 257/278/7
f 147/279/6 146/280/6 177/281/6 330/282/6
f 219/283/4 351/284/4 337/285/4 197/286/4
f 57/287/9 270/288/9 27/289/9 26/290/9
f 223/291/4 353/292/4 335/293/4 193/294/4
f 334/295/3 191/296/3 225/297/3 354/298/3
f 227/299/4 355/300/4 333/301/4 181/302/4
f 332/303/3 183/304/3 229/305/3 356/306/3
f 345/307/10 192/308/10 196/309/10
f 192/308/10 184/310/10 182/311/10
f 184/310/10 344/312/10 190/313/10
f 345/307/10 196/309/10 200/314/10
f 196/309/10 192/308/10 194/315/10
f 344/312/10 192/308/10 345/307/10
f 190/313/10 344/312/10 188/316/10
f 184/310/10 190/313/10 186/317/10
f 188/316/10 344/312/10 343/318/10
f 345/307/10 200/314/10 201/319/10
f 200/314/10 196/309/10 198/320/10
f 345/307/10 201/319/10 341/321/10
f 357/322/3 358/323/3 342/324/3 331/325/3
f 231/326/4 233/327/4 189/328/4 185/329/4
f 203/330/9 209/331/9 346/332/9 347/333/9
f 204/334/1 213/335/1 215/336/1 202/337/1
f 143/338/10 149/339/10 316/340/10 317/341/10
f 240/342/10 230/343/10 226/344/10
f 226/344/10 224/345/10 222/346/10
f 222/346/10 218/347/10 212/348/10
f 240/342/10 234/349/10 230/343/10
f 230/343/10 228/350/10 226/344/10
f 212/348/10 240/342/10 226/344/10
f 218/347/10 216/351/10 212/348/10
f 222/346/10 220/352/10 218/347/10
f 216/351/10 214/353/10 212/348/10
f 240/342/10 236/354/10 234/349/10
f 234/349/10 232/355/10 230/343/10
f 240/342/10 238/356/10 236/354/10
f 12/42/6 254/46/6 4/44/6
f 46/78/6 42/80/6 32/82/6
f 72/129/7 64/131/7 284/133/7
f 106/163/7 92/167/7 102/165/7
f 132/219/9 124/221/9 314/223/9
f 166/253/9 152/257/9 162/255/9
f 192/308/10 344/312/10 184/310/10
f 226/344/10 222/346/10 212/348/10
f 208/357/8 239/358/8 211/359/8 210/360/8
