# Blender v2.78 (sub 0) OBJ File: 'table.blend'
# www.blender.org
mtllib particle_accelerator.mtl
o Cube.002_Cube.013
v -2.500000 3.500000 2.500000
v -2.500000 3.800000 2.500000
v -2.500000 3.800000 -2.500000
v -2.500000 3.500000 -2.500000
v 2.500000 3.500000 -2.500000
v 2.108535 3.500000 -2.108535
v -2.108535 3.500000 -2.108535
v -2.108535 3.500000 2.108535
v 2.500000 3.500000 2.500000
v 2.500000 3.800000 2.500000
v 2.500000 3.800000 -2.500000
v 2.108535 3.500000 2.108535
v -2.108535 3.718683 -2.108535
v -2.108535 3.718683 2.108535
v 2.108535 3.718683 2.108535
v 2.108535 3.718683 -2.108535
v 1.500000 0.000000 2.325000
v 1.500000 0.000000 2.500000
v 1.500000 3.500000 2.500000
v 1.500000 3.500000 2.325000
v 2.325000 0.000000 1.500000
v 2.500000 0.000000 1.500000
v 2.500000 0.000000 2.500000
v 2.325000 0.000000 2.325000
v 2.500000 3.500000 2.500000
v 2.500000 3.500000 1.500000
v 2.325000 3.500000 1.500000
v 2.325000 3.500000 2.325000
v 1.500000 3.500000 -2.300000
v 1.500000 3.500000 -2.500000
v 1.500000 0.000000 -2.500000
v 1.500000 0.000000 -2.300000
v 2.500000 3.500000 -2.500000
v 2.300000 3.500000 -2.300000
v 2.300000 3.500000 -1.500000
v 2.500000 3.500000 -1.500000
v 2.500000 0.000000 -2.500000
v 2.500000 0.000000 -1.500000
v 2.300000 0.000000 -1.500000
v 2.300000 0.000000 -2.300000
v -2.500000 0.000000 -1.500000
v -2.500000 3.500000 -1.500000
v -2.500000 3.500000 -2.500000
v -2.500000 0.000000 -2.500000
v -1.500000 0.000000 -2.500000
v -1.500000 0.000000 -2.300000
v -2.300000 0.000000 -2.300000
v -2.300000 0.000000 -1.500000
v -2.300000 3.500000 -1.500000
v -1.500000 3.500000 -2.500000
v -2.300000 3.500000 -2.300000
v -1.500000 3.500000 -2.300000
v -2.500000 0.000000 2.500000
v -2.500000 3.500000 2.500000
v -2.500000 3.500000 1.500000
v -2.500000 0.000000 1.500000
v -2.300000 0.000000 1.500000
v -2.300000 0.000000 2.300000
v -1.500000 0.000000 2.300000
v -1.500000 0.000000 2.500000
v -1.500000 3.500000 2.500000
v -2.300000 3.500000 1.500000
v -1.500000 3.500000 2.300000
v -2.300000 3.500000 2.300000
v -2.500000 3.500000 2.500000
v -2.500000 3.500000 2.500000
v -2.500000 3.500000 -2.500000
v -2.500000 3.500000 -2.500000
v -2.500000 3.800000 2.500000
v -2.500000 3.800000 2.500000
v -2.500000 3.800000 -2.500000
v -2.500000 3.800000 -2.500000
v 2.500000 3.800000 2.500000
v 2.500000 3.800000 2.500000
v 2.500000 3.800000 -2.500000
v 2.500000 3.800000 -2.500000
v 2.500000 3.500000 -2.500000
v 2.500000 3.500000 -2.500000
v 2.500000 3.500000 2.500000
v 2.500000 3.500000 2.500000
v -2.108535 3.500000 2.108535
v -2.108535 3.500000 2.108535
v -2.108535 3.500000 -2.108535
v -2.108535 3.500000 -2.108535
v -2.108535 3.718683 2.108535
v -2.108535 3.718683 2.108535
v 2.108535 3.500000 2.108535
v 2.108535 3.500000 2.108535
v 2.108535 3.718683 -2.108535
v 2.108535 3.718683 -2.108535
v 2.108535 3.718683 2.108535
v 2.108535 3.718683 2.108535
v -2.108535 3.718683 -2.108535
v -2.108535 3.718683 -2.108535
v 2.108535 3.500000 -2.108535
v 2.108535 3.500000 -2.108535
v 1.500000 0.000000 2.325000
v 1.500000 0.000000 2.325000
v 1.500000 0.000000 2.500000
v 1.500000 0.000000 2.500000
v 1.500000 3.500000 2.500000
v 1.500000 3.500000 2.500000
v 1.500000 3.500000 2.325000
v 1.500000 3.500000 2.325000
v 2.500000 0.000000 2.500000
v 2.500000 0.000000 2.500000
v 2.325000 0.000000 2.325000
v 2.325000 0.000000 2.325000
v 2.500000 3.500000 2.500000
v 2.500000 3.500000 2.500000
v 2.325000 3.500000 1.500000
v 2.325000 3.500000 1.500000
v 2.500000 3.500000 1.500000
v 2.500000 3.500000 1.500000
v 2.500000 0.000000 1.500000
v 2.500000 0.000000 1.500000
v 2.325000 0.000000 1.500000
v 2.325000 0.000000 1.500000
v 2.325000 3.500000 2.325000
v 2.325000 3.500000 2.325000
v 1.500000 3.500000 -2.300000
v 1.500000 3.500000 -2.300000
v 1.500000 3.500000 -2.500000
v 1.500000 3.500000 -2.500000
v 1.500000 0.000000 -2.500000
v 1.500000 0.000000 -2.500000
v 1.500000 0.000000 -2.300000
v 1.500000 0.000000 -2.300000
v 2.500000 3.500000 -2.500000
v 2.500000 3.500000 -2.500000
v 2.300000 3.500000 -2.300000
v 2.300000 3.500000 -2.300000
v 2.300000 3.500000 -1.500000
v 2.300000 3.500000 -1.500000
v 2.500000 3.500000 -1.500000
v 2.500000 3.500000 -1.500000
v 2.500000 0.000000 -2.500000
v 2.500000 0.000000 -2.500000
v 2.500000 0.000000 -1.500000
v 2.500000 0.000000 -1.500000
v 2.300000 0.000000 -2.300000
v 2.300000 0.000000 -2.300000
v 2.300000 0.000000 -1.500000
v 2.300000 0.000000 -1.500000
v -2.500000 0.000000 -1.500000
v -2.500000 0.000000 -1.500000
v -2.500000 0.000000 -2.500000
v -2.500000 0.000000 -2.500000
v -2.300000 3.500000 -1.500000
v -2.300000 3.500000 -1.500000
v -2.500000 3.500000 -1.500000
v -2.500000 3.500000 -1.500000
v -2.300000 0.000000 -1.500000
v -2.300000 0.000000 -1.500000
v -1.500000 3.500000 -2.500000
v -1.500000 3.500000 -2.500000
v -2.500000 3.500000 -2.500000
v -2.500000 3.500000 -2.500000
v -1.500000 0.000000 -2.500000
v -1.500000 0.000000 -2.500000
v -1.500000 0.000000 -2.300000
v -1.500000 0.000000 -2.300000
v -1.500000 3.500000 -2.300000
v -1.500000 3.500000 -2.300000
v -2.300000 0.000000 -2.300000
v -2.300000 0.000000 -2.300000
v -2.300000 3.500000 -2.300000
v -2.300000 3.500000 -2.300000
v -2.500000 0.000000 1.500000
v -2.500000 0.000000 1.500000
v -2.500000 0.000000 2.500000
v -2.500000 0.000000 2.500000
v -1.500000 3.500000 2.500000
v -1.500000 3.500000 2.500000
v -2.500000 3.500000 2.500000
v -2.500000 3.500000 2.500000
v -1.500000 0.000000 2.500000
v -1.500000 0.000000 2.500000
v -2.500000 3.500000 1.500000
v -2.500000 3.500000 1.500000
v -1.500000 3.500000 2.300000
v -1.500000 3.500000 2.300000
v -2.300000 3.500000 2.300000
v -2.300000 3.500000 2.300000
v -2.300000 3.500000 1.500000
v -2.300000 3.500000 1.500000
v -2.300000 0.000000 1.500000
v -2.300000 0.000000 1.500000
v -1.500000 0.000000 2.300000
v -1.500000 0.000000 2.300000
v -2.300000 0.000000 2.300000
v -2.300000 0.000000 2.300000
vt 0.3187 0.9062
vt 0.6949 0.9288
vt 0.3187 0.9288
vt 0.3776 0.0005
vt 0.7243 0.0299
vt 0.4071 0.0299
vt 0.6949 0.9995
vt 0.3187 0.9769
vt 0.6949 0.9769
vt 0.0005 0.3766
vt 0.3766 0.0005
vt 0.3766 0.3766
vt 0.3187 0.9298
vt 0.6949 0.9524
vt 0.3187 0.9524
vt 0.7243 0.3472
vt 0.7538 0.0005
vt 0.7538 0.3766
vt 0.6949 0.9759
vt 0.3187 0.9534
vt 0.6949 0.9534
vt 0.3177 0.8544
vt 0.0005 0.8708
vt 0.0005 0.8544
vt 0.0005 0.8534
vt 0.3177 0.8369
vt 0.3177 0.8534
vt 0.0005 0.6949
vt 0.3177 0.3776
vt 0.3177 0.6949
vt 0.3177 0.8893
vt 0.0005 0.9057
vt 0.0005 0.8893
vt 0.0005 0.8883
vt 0.3177 0.8718
vt 0.3177 0.8883
vt 0.8834 0.6419
vt 0.8702 0.9052
vt 0.8702 0.6419
vt 0.7489 0.7934
vt 0.7489 0.7803
vt 0.8109 0.7803
vt 0.8300 0.2638
vt 0.7548 0.0005
vt 0.8300 0.0005
vt 0.2259 0.7793
vt 0.1727 0.8139
vt 0.2259 0.7607
vt 0.8941 0.2638
vt 0.9072 0.0005
vt 0.9072 0.2638
vt 0.6989 0.6409
vt 0.6236 0.3776
vt 0.6989 0.3776
vt 0.3187 0.6419
vt 0.3808 0.9052
vt 0.3187 0.9052
vt 0.8931 0.2638
vt 0.8310 0.0005
vt 0.8931 0.0005
vt 0.8844 0.6409
vt 0.8995 0.3776
vt 0.8995 0.6409
vt 0.0757 0.8359
vt 0.0607 0.8209
vt 0.0757 0.7607
vt 0.5464 0.6409
vt 0.4712 0.3776
vt 0.5464 0.3776
vt 0.8241 0.7172
vt 0.8090 0.7172
vt 0.8091 0.6570
vt 0.7751 0.6409
vt 0.6999 0.3776
vt 0.7751 0.3776
vt 0.8674 0.3776
vt 0.8523 0.6409
vt 0.8523 0.3776
vt 0.4430 0.6419
vt 0.5032 0.9052
vt 0.4430 0.9052
vt 0.4420 0.9052
vt 0.3818 0.6419
vt 0.4420 0.6419
vt 0.6226 0.6409
vt 0.5474 0.3776
vt 0.6226 0.3776
vt 0.8300 0.2648
vt 0.8150 0.2798
vt 0.7548 0.2648
vt 0.8251 0.9052
vt 0.8402 0.6419
vt 0.8402 0.9052
vt 0.1611 0.6959
vt 0.1717 0.7065
vt 0.1292 0.7491
vt 0.3940 0.6409
vt 0.3187 0.3776
vt 0.3940 0.3776
vt 0.8995 0.6419
vt 0.8844 0.9052
vt 0.8844 0.6419
vt 0.6265 0.6419
vt 0.6867 0.9052
vt 0.6265 0.9052
vt 0.5643 0.9052
vt 0.5042 0.6419
vt 0.5643 0.6419
vt 0.4702 0.6409
vt 0.3950 0.3776
vt 0.4702 0.3776
vt 0.0537 0.7172
vt 0.0005 0.7491
vt 0.0537 0.6959
vt 0.8513 0.6409
vt 0.7761 0.3776
vt 0.8513 0.3776
vt 0.2791 0.7491
vt 0.2685 0.7597
vt 0.2259 0.7172
vt 0.8834 0.3776
vt 0.8684 0.6409
vt 0.8684 0.3776
vt 0.8523 0.9052
vt 0.8674 0.6419
vt 0.8674 0.9052
vt 0.6255 0.9052
vt 0.5653 0.6419
vt 0.6255 0.6419
vt 0.6877 0.6419
vt 0.7479 0.9052
vt 0.6877 0.9052
vt 0.6949 0.9062
vt 0.4071 0.3472
vt 0.3776 0.3766
vt 0.3187 0.9995
vt 0.0005 0.0005
vt 0.6949 0.9298
vt 0.3187 0.9759
vt 0.3177 0.8708
vt 0.0005 0.8369
vt 0.0005 0.3776
vt 0.3177 0.9057
vt 0.0005 0.8718
vt 0.8834 0.9052
vt 0.8109 0.7182
vt 0.8241 0.7182
vt 0.8241 0.7934
vt 0.7548 0.2638
vt 0.2791 0.8139
vt 0.1820 0.8232
vt 0.2698 0.8232
vt 0.8941 0.0005
vt 0.6236 0.6409
vt 0.3808 0.6419
vt 0.8310 0.2638
vt 0.8844 0.3776
vt 0.0005 0.8359
vt 0.0607 0.7607
vt 0.0005 0.8209
vt 0.4712 0.6409
vt 0.7489 0.6570
vt 0.7489 0.6419
vt 0.8241 0.6420
vt 0.6999 0.6409
vt 0.8674 0.6409
vt 0.5032 0.6419
vt 0.3818 0.9052
vt 0.5474 0.6409
vt 0.8300 0.3400
vt 0.7548 0.2798
vt 0.8150 0.3400
vt 0.8251 0.6419
vt 0.1717 0.7916
vt 0.1611 0.8023
vt 0.1079 0.7491
vt 0.3187 0.6409
vt 0.8995 0.9052
vt 0.6867 0.6419
vt 0.5042 0.9052
vt 0.3950 0.6409
vt 0.1069 0.7491
vt 0.0111 0.7597
vt 0.0962 0.7597
vt 0.7761 0.6409
vt 0.1834 0.7597
vt 0.1727 0.7491
vt 0.2259 0.6959
vt 0.8834 0.6409
vt 0.8523 0.6419
vt 0.5653 0.9052
vt 0.7479 0.6419
vn -1.0000 0.0000 0.0000
vn 0.0000 -1.0000 0.0000
vn 0.0000 0.0000 1.0000
vn 0.0000 1.0000 0.0000
vn 0.0000 0.0000 -1.0000
vn 1.0000 0.0000 0.0000
usemtl table
s off
f 69/1/1 67/2/1 65/3/1
f 4/4/2 95/5/2 84/6/2
f 73/7/3 1/8/3 79/9/3
f 3/10/4 74/11/4 75/12/4
f 72/13/5 78/14/5 68/15/5
f 12/16/2 5/17/2 80/18/2
f 76/19/6 9/20/6 77/21/6
f 83/22/6 85/23/6 82/24/6
f 8/25/5 92/26/5 87/27/5
f 91/28/2 94/29/2 89/30/2
f 6/31/3 13/32/3 7/33/3
f 88/34/1 90/35/1 96/36/1
f 99/37/1 103/38/1 97/39/1
f 18/40/2 98/41/2 107/42/2
f 110/43/3 100/44/3 105/45/3
f 120/46/4 102/47/4 109/48/4
f 113/49/5 118/50/5 111/51/5
f 114/52/6 106/53/6 116/54/6
f 21/55/1 119/56/1 112/57/1
f 20/58/5 24/59/5 17/60/5
f 123/61/1 127/62/1 121/63/1
f 129/64/4 132/65/4 135/66/4
f 124/67/5 137/68/5 125/69/5
f 140/70/2 143/71/2 141/72/2
f 130/73/6 139/74/6 138/75/6
f 38/76/3 134/77/3 144/78/3
f 32/79/3 131/80/3 122/81/3
f 35/82/1 40/83/1 39/84/1
f 152/85/1 147/86/1 145/87/1
f 44/88/2 165/89/2 146/90/2
f 151/91/3 154/92/3 149/93/3
f 42/94/4 150/95/4 168/96/4
f 43/97/5 159/98/5 148/99/5
f 160/100/6 164/101/6 161/102/6
f 48/103/6 167/104/6 49/105/6
f 52/106/3 47/107/3 162/108/3
f 176/109/1 169/110/1 171/111/1
f 192/112/2 177/113/2 172/114/2
f 173/115/3 53/116/3 178/117/3
f 174/118/4 181/119/4 183/120/4
f 170/121/5 186/122/5 187/123/5
f 61/124/6 190/125/6 182/126/6
f 62/127/6 191/128/6 188/129/6
f 59/130/5 64/131/5 63/132/5
f 69/1/1 71/133/1 67/2/1
f 81/134/2 66/135/2 4/4/2
f 4/4/2 5/17/2 95/5/2
f 84/6/2 81/134/2 4/4/2
f 73/7/3 70/136/3 1/8/3
f 3/10/4 2/137/4 74/11/4
f 72/13/5 11/138/5 78/14/5
f 80/18/2 66/135/2 81/134/2
f 12/16/2 95/5/2 5/17/2
f 80/18/2 81/134/2 12/16/2
f 76/19/6 10/139/6 9/20/6
f 83/22/6 93/140/6 85/23/6
f 8/25/5 86/141/5 92/26/5
f 91/28/2 14/142/2 94/29/2
f 6/31/3 16/143/3 13/32/3
f 88/34/1 15/144/1 90/35/1
f 99/37/1 101/145/1 103/38/1
f 107/42/2 117/146/2 115/147/2
f 23/148/2 18/40/2 107/42/2
f 107/42/2 115/147/2 23/148/2
f 110/43/3 19/149/3 100/44/3
f 109/48/4 26/150/4 120/46/4
f 120/46/4 104/151/4 102/47/4
f 26/150/4 27/152/4 120/46/4
f 113/49/5 22/153/5 118/50/5
f 114/52/6 25/154/6 106/53/6
f 21/55/1 108/155/1 119/56/1
f 20/58/5 28/156/5 24/59/5
f 123/61/1 126/157/1 127/62/1
f 129/64/4 30/158/4 132/65/4
f 132/65/4 133/159/4 135/66/4
f 30/158/4 29/160/4 132/65/4
f 124/67/5 33/161/5 137/68/5
f 128/162/2 31/163/2 141/72/2
f 37/164/2 140/70/2 141/72/2
f 141/72/2 31/163/2 37/164/2
f 130/73/6 136/165/6 139/74/6
f 38/76/3 36/166/3 134/77/3
f 32/79/3 142/167/3 131/80/3
f 35/82/1 34/168/1 40/83/1
f 152/85/1 158/169/1 147/86/1
f 44/88/2 45/170/2 165/89/2
f 165/89/2 153/171/2 146/90/2
f 45/170/2 46/172/2 165/89/2
f 151/91/3 41/173/3 154/92/3
f 163/174/4 155/175/4 168/96/4
f 157/176/4 42/94/4 168/96/4
f 168/96/4 155/175/4 157/176/4
f 43/97/5 156/177/5 159/98/5
f 160/100/6 50/178/6 164/101/6
f 48/103/6 166/179/6 167/104/6
f 52/106/3 51/180/3 47/107/3
f 176/109/1 179/181/1 169/110/1
f 172/114/2 56/182/2 192/112/2
f 192/112/2 189/183/2 177/113/2
f 56/182/2 57/184/2 192/112/2
f 173/115/3 175/185/3 53/116/3
f 183/120/4 185/186/4 180/187/4
f 54/188/4 174/118/4 183/120/4
f 183/120/4 180/187/4 54/188/4
f 170/121/5 55/189/5 186/122/5
f 61/124/6 60/190/6 190/125/6
f 62/127/6 184/191/6 191/128/6
f 59/130/5 58/192/5 64/131/5
